<svg width="512" height="512" viewBox="0 0 512 512" fill="none" xmlns="http://www.w3.org/2000/svg">
<g clip-path="url(#clip0_5_27)">
<path fill-rule="evenodd" clip-rule="evenodd" d="M143.874 69.3494C228.998 17.6548 341.465 28.5829 415.028 102.134L347.993 169.169C311.913 133.089 259.452 123.375 214.551 140.026L143.874 69.3494ZM69.369 143.842C17.649 228.974 28.575 341.47 102.147 415.041C175.719 488.613 288.214 499.539 373.347 447.819L302.637 377.11C257.736 393.76 205.275 384.046 169.196 347.966C133.116 311.887 123.402 259.426 140.052 214.525L69.369 143.842ZM417.099 412.957L412.958 417.099C413.656 416.418 414.35 415.733 415.042 415.041C415.733 414.35 416.419 413.656 417.099 412.957Z" fill="#5593F0"/>
<path d="M314.481 247.406L355.442 288.367L340.555 340.529L288.406 355.429L247.432 314.455L297.718 297.693L314.481 247.406Z" fill="#FDA27A"/>
<path d="M273.507 206.432L310.756 243.681L293.994 293.968L243.707 310.73L206.458 273.481L254.882 254.856L273.507 206.432Z" fill="#FCB17C"/>
<path d="M236.257 169.182L269.782 202.707L251.157 251.131L202.733 269.756L169.208 236.231L215.77 215.744L236.257 169.182Z" fill="#FCBD7E"/>
<path d="M202.733 135.658L232.532 165.457L212.045 212.019L165.484 232.506L135.684 202.707L180.383 180.357L202.733 135.658Z" fill="#FBC780"/>
<path d="M146.859 79.7839L169.209 102.134L143.141 143.074L102.16 169.182L79.8102 146.833L118.929 118.862L146.859 79.7839Z" fill="#FCD983"/>
<path d="M124.509 57.4343L143.134 76.059L115.204 115.137L76.0851 143.108L57.4604 124.483L94.7098 94.6837L124.509 57.4343Z" fill="#FBE284"/>
<path d="M105.885 38.8096L120.784 53.7093L90.9848 90.9587L53.7354 120.758L38.8357 105.858L74.2226 74.1965L105.885 38.8096Z" fill="#FAE784"/>
<path d="M90.9847 23.9099L102.16 35.0847L70.4976 70.4716L35.1107 102.134L23.9359 90.9587L90.9847 23.9099Z" fill="#FAED85"/>
<path d="M359.18 292.105L474.653 407.578L474.653 474.627L407.605 474.627L292.132 359.154L344.281 344.254L359.18 292.105Z" fill="#FE7E74"/>
<path d="M172.934 105.858L199.008 131.933L176.659 176.632L131.959 198.982L105.885 172.907L146.866 146.799L172.934 105.858Z" fill="#FBCF81"/>
</g>
<defs>
<clipPath id="clip0_5_27">
<rect width="512" height="512" fill="white"/>
</clipPath>
</defs>
</svg>
